#Comment line ignore any data following # character 
#Hierarchical Translation and Rotation (.htr) file 
[Header]	
#Header keywords are followed by a single value 
FileType HTR		#Single word string
DataType HTRS		#Translation followed by rotation and scale data
FileVersion 1		#integer
NumSegments 64		#integer
NumFrames 3		#integer
DataFrameRate 30		#integer, data frame rate in this file
EulerRotationOrder ZYX
CalibrationUnits mm
RotationUnits Degrees
GlobalAxisofGravity Y
BoneLengthAxis Y
ScaleFactor 1.00
[SegmentNames&Hierarchy]
#CHILD	PARENT
Pinger_Root GLOBAL
Pelvis Pinger_Root
L_Hip Pelvis
R_Hip Pelvis
Rear_Leg01 Pelvis
Spine1 Pelvis
L_Leg01 L_Hip
L_Leg02 L_Leg01
L_Leg03 L_Leg02
L_Foot L_Leg03
L_Toe1_01 L_Foot
L_Toe2_01 L_Foot
L_Toe3_01 L_Foot
planeAlignerLeft L_Foot
L_Toe1_02 L_Toe1_01
L_Toe1_03 L_Toe1_02
L_Toe2_02 L_Toe2_01
L_Toe2_03 L_Toe2_02
L_Toe3_02 L_Toe3_01
L_Toe3_03 L_Toe3_02
planeLockWeightLeft planeAlignerLeft
R_Leg01 R_Hip
R_Leg02 R_Leg01
R_Leg03 R_Leg02
R_Foot R_Leg03
planeAlignerRight R_Foot
R_Toe1_01 R_Foot
R_Toe2_01 R_Foot
R_Toe3_01 R_Foot
planeLockWeightRight planeAlignerRight
R_Toe1_02 R_Toe1_01
R_Toe1_03 R_Toe1_02
R_Toe2_02 R_Toe2_01
R_Toe2_03 R_Toe2_02
R_Toe3_02 R_Toe3_01
R_Toe3_03 R_Toe3_02
Rear_Leg02 Rear_Leg01
Rear_Leg03 Rear_Leg02
Rear_Leg04 Rear_Leg03
Rear_Foot Rear_Leg04
planeAlignerCenter Rear_Foot
Rear_Toe1_01 Rear_Foot
Rear_Toe2_01 Rear_Foot
Rear_Toe3_01 Rear_Foot
planeLockWeightCenter planeAlignerCenter
Rear_Toe1_02 Rear_Toe1_01
Rear_Toe1_03 Rear_Toe1_02
Rear_Toe2_02 Rear_Toe2_01
Rear_Toe2_03 Rear_Toe2_02
Rear_Toe3_02 Rear_Toe3_01
Rear_Toe3_03 Rear_Toe3_02
Back_Bone Spine1
Head Spine1
Motor_Bone Back_Bone
Ping_Mechanism Back_Bone
BN_LookIK Head
bottomMouth Head
L_Mouth01 Head
L_mouthFront Head
mouthGun Head
R_Mouth01 Head
R_mouthFront Head
TopMouth Head
weapon_bone Head
[BasePosition]
#SegmentName Tx, Ty, Tz, Rx, Ry, Rz, BoneLength
Pinger_Root 0.000000 0.000000 0.000000 -90.000000 0.000000 0.000000 10.000000 
Pelvis 0.000000 0.000000 0.000000 0.000000 0.000000 0.000000 10.000000 
L_Hip 0.000000 0.000000 0.000000 0.000000 0.000000 0.000000 10.000000 
R_Hip 0.000000 0.000000 0.000000 0.000000 0.000000 0.000000 10.000000 
Rear_Leg01 0.000000 0.000000 0.000000 0.000000 0.000000 0.000000 10.000000 
Spine1 0.000000 0.000000 0.000000 0.000000 0.000000 0.000000 10.000000 
L_Leg01 0.000000 0.000000 0.000000 0.000000 0.000000 0.000000 10.000000 
L_Leg02 0.000000 0.000000 0.000000 0.000000 0.000000 0.000000 10.000000 
L_Leg03 0.000000 0.000000 0.000000 0.000000 0.000000 0.000000 10.000000 
L_Foot 0.000000 0.000000 0.000000 0.000000 0.000000 0.000000 10.000000 
L_Toe1_01 0.000000 0.000000 0.000000 0.000000 0.000000 0.000000 10.000000 
L_Toe2_01 0.000000 0.000000 0.000000 0.000000 0.000000 0.000000 10.000000 
L_Toe3_01 0.000000 0.000000 0.000000 0.000000 0.000000 0.000000 10.000000 
planeAlignerLeft 0.000000 0.000000 0.000000 0.000000 0.000000 0.000000 10.000000 
L_Toe1_02 0.000000 0.000000 0.000000 0.000000 0.000000 0.000000 10.000000 
L_Toe1_03 0.000000 0.000000 0.000000 0.000000 0.000000 0.000000 10.000000 
L_Toe2_02 0.000000 0.000000 0.000000 0.000000 0.000000 0.000000 10.000000 
L_Toe2_03 0.000000 0.000000 0.000000 0.000000 0.000000 0.000000 10.000000 
L_Toe3_02 0.000000 0.000000 0.000000 0.000000 0.000000 0.000000 10.000000 
L_Toe3_03 0.000000 0.000000 0.000000 0.000000 0.000000 0.000000 10.000000 
planeLockWeightLeft 0.000000 0.000000 0.000000 0.000000 0.000000 0.000000 10.000000 
R_Leg01 0.000000 0.000000 0.000000 0.000000 0.000000 0.000000 10.000000 
R_Leg02 0.000000 0.000000 0.000000 0.000000 0.000000 0.000000 10.000000 
R_Leg03 0.000000 0.000000 0.000000 0.000000 0.000000 0.000000 10.000000 
R_Foot 0.000000 0.000000 0.000000 0.000000 0.000000 0.000000 10.000000 
planeAlignerRight 0.000000 0.000000 0.000000 0.000000 0.000000 0.000000 10.000000 
R_Toe1_01 0.000000 0.000000 0.000000 0.000000 0.000000 0.000000 10.000000 
R_Toe2_01 0.000000 0.000000 0.000000 0.000000 0.000000 0.000000 10.000000 
R_Toe3_01 0.000000 0.000000 0.000000 0.000000 0.000000 0.000000 10.000000 
planeLockWeightRight 0.000000 0.000000 0.000000 0.000000 0.000000 0.000000 10.000000 
R_Toe1_02 0.000000 0.000000 0.000000 0.000000 0.000000 0.000000 10.000000 
R_Toe1_03 0.000000 0.000000 0.000000 0.000000 0.000000 0.000000 10.000000 
R_Toe2_02 0.000000 0.000000 0.000000 0.000000 0.000000 0.000000 10.000000 
R_Toe2_03 0.000000 0.000000 0.000000 0.000000 0.000000 0.000000 10.000000 
R_Toe3_02 0.000000 0.000000 0.000000 0.000000 0.000000 0.000000 10.000000 
R_Toe3_03 0.000000 0.000000 0.000000 0.000000 0.000000 0.000000 10.000000 
Rear_Leg02 0.000000 0.000000 0.000000 0.000000 0.000000 0.000000 10.000000 
Rear_Leg03 0.000000 0.000000 0.000000 0.000000 0.000000 0.000000 10.000000 
Rear_Leg04 0.000000 0.000000 0.000000 0.000000 0.000000 0.000000 10.000000 
Rear_Foot 0.000000 0.000000 0.000000 0.000000 0.000000 0.000000 10.000000 
planeAlignerCenter 0.000000 0.000000 0.000000 0.000000 0.000000 0.000000 10.000000 
Rear_Toe1_01 0.000000 0.000000 0.000000 0.000000 0.000000 0.000000 10.000000 
Rear_Toe2_01 0.000000 0.000000 0.000000 0.000000 0.000000 0.000000 10.000000 
Rear_Toe3_01 0.000000 0.000000 0.000000 0.000000 0.000000 0.000000 10.000000 
planeLockWeightCenter 0.000000 0.000000 0.000000 0.000000 0.000000 0.000000 10.000000 
Rear_Toe1_02 0.000000 0.000000 0.000000 0.000000 0.000000 0.000000 10.000000 
Rear_Toe1_03 0.000000 0.000000 0.000000 0.000000 0.000000 0.000000 10.000000 
Rear_Toe2_02 0.000000 0.000000 0.000000 0.000000 0.000000 0.000000 10.000000 
Rear_Toe2_03 0.000000 0.000000 0.000000 0.000000 0.000000 0.000000 10.000000 
Rear_Toe3_02 0.000000 0.000000 0.000000 0.000000 0.000000 0.000000 10.000000 
Rear_Toe3_03 0.000000 0.000000 0.000000 0.000000 0.000000 0.000000 10.000000 
Back_Bone 0.000000 0.000000 0.000000 0.000000 0.000000 0.000000 10.000000 
Head 0.000000 0.000000 0.000000 0.000000 0.000000 0.000000 10.000000 
Motor_Bone 0.000000 0.000000 0.000000 0.000000 0.000000 0.000000 10.000000 
Ping_Mechanism 0.000000 0.000000 0.000000 0.000000 0.000000 0.000000 10.000000 
BN_LookIK 0.000000 0.000000 0.000000 0.000000 0.000000 0.000000 10.000000 
bottomMouth 0.000000 0.000000 0.000000 0.000000 0.000000 0.000000 10.000000 
L_Mouth01 0.000000 0.000000 0.000000 0.000000 0.000000 0.000000 10.000000 
L_mouthFront 0.000000 0.000000 0.000000 0.000000 0.000000 0.000000 10.000000 
mouthGun 0.000000 0.000000 0.000000 0.000000 0.000000 0.000000 10.000000 
R_Mouth01 0.000000 0.000000 0.000000 0.000000 0.000000 0.000000 10.000000 
R_mouthFront 0.000000 0.000000 0.000000 0.000000 0.000000 0.000000 10.000000 
TopMouth 0.000000 0.000000 0.000000 0.000000 0.000000 0.000000 10.000000 
weapon_bone 0.000000 0.000000 0.000000 0.000000 0.000000 0.000000 10.000000 
#Beginning of Data. Separated by tabs
#Fr	Tx	Ty	Tz	Rx	Ry	Rz	SF
[Pinger_Root]
76 0.000000 0.000000 0.000000 -0.000075 -0.000000 -0.000020 0.000000
77 0.000000 0.000000 0.000000 -0.000075 -0.000000 -0.000020 0.000000
78 0.000000 0.000000 0.000000 -0.000075 -0.000000 -0.000020 0.000000
[Pelvis]
76 -433.166290 1000.582581 3180.247803 9.006774 -78.629333 -20.890396 3361.959961
77 -433.166321 1013.863098 3172.438232 8.124914 -78.693398 -20.025511 3358.558350
78 -433.166351 1027.143555 3164.628418 7.242029 -78.755211 -19.159433 3355.224365
[L_Hip]
76 5.766392 125.831482 872.656799 -170.521164 -57.279449 91.298492 881.701050
77 5.766392 125.831482 872.656799 -170.520676 -57.280018 91.297630 881.701050
78 5.766392 125.831482 872.656799 -170.520187 -57.280605 91.296791 881.701050
[R_Hip]
76 5.765438 125.836372 -872.654907 -20.294289 57.263119 56.255676 881.699829
77 5.765438 125.836372 -872.654907 -20.294857 57.263645 56.255394 881.699829
78 5.765438 125.836372 -872.654907 -20.295427 57.264172 56.255135 881.699829
[Rear_Leg01]
76 -192.298416 -925.602966 -0.001907 -164.650940 18.858089 -96.887329 945.367432
77 -192.298416 -925.602966 -0.001907 -164.634109 18.838194 -96.869865 945.367432
78 -192.298416 -925.602966 -0.001907 -164.617294 18.818291 -96.852394 945.367432
[Spine1]
76 290.604584 5.007505 0.000477 10.120631 -13.773561 15.931592 290.647736
77 290.604584 5.007505 0.000477 10.120378 -13.773888 15.931973 290.647736
78 290.604584 5.007505 0.000477 10.120128 -13.774219 15.932363 290.647736
[L_Leg01]
76 761.932007 -0.002384 -0.069261 31.641087 26.088751 -106.605667 761.932068
77 761.932007 -0.002384 -0.069261 31.011644 26.006544 -106.637711 761.932068
78 761.932007 -0.002384 -0.069261 30.382639 25.924011 -106.668732 761.932068
[L_Leg02]
76 1441.140503 -0.000954 -0.000715 19.194469 8.204567 -62.734776 1441.140503
77 1441.140503 -0.000954 -0.000715 19.402349 8.523211 -63.517483 1441.140503
78 1441.140503 -0.000954 -0.000715 19.605989 8.844652 -64.299728 1441.140503
[L_Leg03]
76 1686.963989 -0.000715 -0.000954 -0.127097 0.081939 145.002441 1686.963989
77 1686.963989 -0.000715 -0.000954 -0.128541 0.083357 145.446823 1686.963989
78 1686.963989 -0.000715 -0.000954 -0.129974 0.084786 145.891129 1686.963989
[L_Foot]
76 3041.570068 -30.715107 11.297464 7.674709 25.925493 48.957150 3041.746094
77 3041.570068 -30.715107 11.297464 7.647167 25.349106 49.344429 3041.746094
78 3041.570068 -30.715107 11.297464 7.615462 24.772980 49.730110 3041.746094
[L_Toe1_01]
76 -188.216690 -224.732346 -21.137953 94.536530 -11.874324 -178.539001 293.899567
77 -188.216690 -224.732346 -21.137953 94.536530 -11.874324 -178.539001 293.899567
78 -188.216690 -224.732346 -21.137953 94.536530 -11.874326 -178.539001 293.899567
[L_Toe2_01]
76 200.746536 -219.926590 148.838394 -89.362022 -33.862488 -48.453693 332.896027
77 200.746536 -219.926590 148.838394 -89.361671 -33.862442 -48.454533 332.896027
78 200.746536 -219.926590 148.838394 -89.361290 -33.862377 -48.455349 332.896027
[L_Toe3_01]
76 188.832520 -219.859131 -191.078659 -97.078224 10.785590 -57.879002 347.140900
77 188.832520 -219.859131 -191.078659 -97.078232 10.785587 -57.879009 347.140900
78 188.832520 -219.859131 -191.078659 -97.078224 10.785592 -57.879009 347.140900
[planeAlignerLeft]
76 0.812531 -811.448792 -0.314951 0.000000 -90.000000 -90.001900 811.449280
77 0.812531 -811.448792 -0.314951 0.000000 -90.000000 -90.001900 811.449280
78 0.812531 -811.448792 -0.314951 0.000000 -90.000000 -90.001900 811.449280
[L_Toe1_02]
76 413.761139 0.000477 0.000000 0.000203 -25.410625 -0.000182 413.761139
77 413.761139 0.000477 0.000000 0.000203 -25.410625 -0.000182 413.761139
78 413.761139 0.000477 0.000000 0.000203 -25.410625 -0.000182 413.761139
[L_Toe1_03]
76 464.317322 0.000358 -0.000089 0.004342 58.635960 0.004342 464.317322
77 464.317322 0.000358 -0.000089 0.004342 58.635971 0.004342 464.317322
78 464.317322 0.000358 -0.000089 0.004342 58.635971 0.004342 464.317322
[L_Toe2_02]
76 342.235809 -0.000477 0.000238 0.001191 -70.156403 0.001191 342.235809
77 342.235809 -0.000477 0.000238 0.001191 -70.156448 0.001191 342.235809
78 342.235809 -0.000477 0.000238 0.001191 -70.156403 0.001191 342.235809
[L_Toe2_03]
76 420.210846 -0.000715 0.000000 0.013353 79.915703 0.013353 420.210846
77 420.210846 -0.000715 0.000000 0.013353 79.915710 0.013353 420.210846
78 420.210846 -0.000715 0.000000 0.013353 79.915703 0.013353 420.210846
[L_Toe3_02]
76 329.270111 0.000954 0.000000 0.001176 -83.138992 0.001176 329.270111
77 329.270111 0.000954 0.000000 0.001176 -83.138412 0.001176 329.270111
78 329.270111 0.000954 0.000000 0.001176 -83.137955 0.001176 329.270111
[L_Toe3_03]
76 439.137451 -0.001907 0.000954 179.990875 65.540871 179.998047 439.137451
77 439.137451 -0.001907 0.000954 179.990875 65.540901 179.998047 439.137451
78 439.137451 -0.001907 0.000954 179.990875 65.540901 179.998047 439.137451
[planeLockWeightLeft]
76 -0.000954 0.000238 -0.000305 -0.011826 -0.004376 0.005620 0.001029
77 -0.000954 0.000238 -0.000305 -0.011826 -0.004376 0.005620 0.001029
78 -0.000954 0.000238 -0.000305 -0.011826 -0.004376 0.005620 0.001029
[R_Leg01]
76 761.455627 -0.001907 -0.000358 95.273331 12.322942 102.355606 761.455688
77 761.455627 -0.001907 -0.000358 94.823463 11.967489 102.353798 761.455688
78 761.455627 -0.001907 -0.000358 94.374176 11.612025 102.354866 761.455688
[R_Leg02]
76 1441.140625 0.000000 -0.000238 18.831369 20.845877 -115.077995 1441.140625
77 1441.140625 0.000000 -0.000238 18.621771 21.532036 -117.194275 1441.140625
78 1441.140625 0.000000 -0.000238 18.384117 22.210003 -119.321861 1441.140625
[R_Leg03]
76 1686.963989 0.000954 0.001431 0.189480 -0.135866 161.284576 1686.963989
77 1686.963989 0.000954 0.001431 0.191508 -0.139069 161.972656 1686.963989
78 1686.963989 0.000954 0.001431 0.193497 -0.142296 162.660812 1686.963989
[R_Foot]
76 3041.560059 -30.531288 -11.204481 18.899263 -21.659029 36.531456 3041.734131
77 3041.560059 -30.531288 -11.204481 19.421396 -22.100882 37.391956 3041.734131
78 3041.560059 -30.531288 -11.204481 19.937826 -22.549841 38.250603 3041.734131
[planeAlignerRight]
76 -0.635147 -812.270569 -0.364304 0.000000 -89.960434 -90.005180 812.270874
77 -0.635147 -812.270569 -0.364304 0.000000 -89.960434 -90.005180 812.270874
78 -0.635147 -812.270569 -0.364304 0.000000 -89.960434 -90.005180 812.270874
[R_Toe1_01]
76 -188.383347 -224.864899 21.052242 90.575348 8.462499 175.364456 294.101532
77 -188.383347 -224.864899 21.052242 90.575348 8.462499 175.364456 294.101532
78 -188.383347 -224.864899 21.052242 90.575348 8.462499 175.364456 294.101532
[R_Toe2_01]
76 200.637817 -220.002121 -148.787384 -82.262184 10.458572 -29.563955 332.857574
77 200.637817 -220.002121 -148.787384 -82.262222 10.458588 -29.563929 332.857574
78 200.637817 -220.002121 -148.787384 -82.262283 10.458601 -29.563900 332.857574
[R_Toe3_01]
76 188.606735 -220.092957 191.126343 -69.666214 -41.492039 -42.965813 347.192566
77 188.606735 -220.092957 191.126343 -69.666229 -41.492081 -42.965794 347.192566
78 188.606735 -220.092957 191.126343 -69.666206 -41.492104 -42.965767 347.192566
[planeLockWeightRight]
76 -0.000477 0.000000 0.000000 -0.011823 -0.004379 -0.000027 0.000477
77 -0.000477 0.000000 0.000000 -0.011823 -0.004379 -0.000027 0.000477
78 -0.000477 0.000000 0.000000 -0.011823 -0.004379 -0.000027 0.000477
[R_Toe1_02]
76 413.762085 0.000477 -0.000119 0.001409 -22.827040 0.001409 413.762085
77 413.762085 0.000477 -0.000119 0.001409 -22.826256 0.001409 413.762085
78 413.762085 0.000477 -0.000119 0.001409 -22.825481 0.001409 413.762085
[R_Toe1_03]
76 464.317810 0.000000 0.001088 0.012351 79.094749 0.012351 464.317810
77 464.317810 0.000000 0.001088 0.012351 79.094681 0.012351 464.317810
78 464.317810 0.000000 0.001088 0.012351 79.094673 0.012351 464.317810
[R_Toe2_02]
76 342.234741 -0.000954 0.000238 0.001192 -69.583321 0.001192 342.234741
77 342.234741 -0.000954 0.000238 0.001192 -69.583298 0.001192 342.234741
78 342.234741 -0.000954 0.000238 0.001192 -69.583298 0.001192 342.234741
[R_Toe2_03]
76 420.210846 0.000715 -0.000268 0.011860 78.641640 0.011860 420.210846
77 420.210846 0.000715 -0.000268 0.011860 78.641693 0.011860 420.210846
78 420.210846 0.000715 -0.000268 0.011860 78.641747 0.011860 420.210846
[R_Toe3_02]
76 329.270355 -0.000477 -0.000954 0.001179 -79.434776 0.001179 329.270355
77 329.270355 -0.000477 -0.000954 0.001179 -79.434776 0.001179 329.270355
78 329.270355 -0.000477 -0.000954 0.001179 -79.434776 0.001179 329.270355
[R_Toe3_03]
76 439.137939 0.000238 0.001431 -179.993027 82.445190 -179.989532 439.137939
77 439.137939 0.000238 0.001431 -179.993027 82.445084 -179.989532 439.137939
78 439.137939 0.000238 0.001431 -179.993027 82.445053 -179.989532 439.137939
[Rear_Leg02]
76 1162.777710 -0.029802 0.005960 -28.674088 17.015297 -111.528717 1162.777710
77 1162.777710 -0.029802 0.005960 -28.329767 17.055613 -111.161804 1162.777710
78 1162.777710 -0.029802 0.005960 -27.981329 17.067635 -110.794975 1162.777710
[Rear_Leg03]
76 607.192505 -0.013351 -0.073195 0.010029 -0.005964 77.829819 607.192505
77 607.192505 -0.013351 -0.073195 0.010033 -0.005958 77.766312 607.192505
78 607.192505 -0.013351 -0.073195 0.010036 -0.005953 77.702805 607.192505
[Rear_Leg04]
76 995.874512 -0.020504 -0.011921 -0.043505 -0.016508 92.598175 995.874573
77 995.874512 -0.020504 -0.011921 -0.043468 -0.016607 92.339096 995.874573
78 995.874512 -0.020504 -0.011921 -0.043430 -0.016705 92.080017 995.874573
[Rear_Foot]
76 3096.176270 -0.067472 -0.041425 54.285469 54.632286 -125.247978 3096.176270
77 3096.176270 -0.067472 -0.041425 54.003986 54.876534 -125.332085 3096.176270
78 3096.176270 -0.067472 -0.041425 53.720203 55.120556 -125.418816 3096.176270
[planeAlignerCenter]
76 0.350077 0.966311 -838.790894 0.000009 0.000003 -179.999985 838.791565
77 0.350077 0.966311 -838.790894 0.000009 0.000003 -179.999985 838.791565
78 0.350077 0.966311 -838.790894 0.000009 0.000003 -179.999985 838.791565
[Rear_Toe1_01]
76 0.653352 83.966492 -371.173737 5.374305 30.414740 103.609497 380.553192
77 0.653352 83.966492 -371.173737 5.374228 30.414108 103.609520 380.553192
78 0.653352 83.966492 -371.173737 5.374153 30.413481 103.609528 380.553192
[Rear_Toe2_01]
76 178.200760 -294.826019 -362.060547 -8.738788 22.906643 -73.395973 499.765686
77 178.200760 -294.826019 -362.060547 -8.738757 22.906052 -73.395950 499.765686
78 178.200760 -294.826019 -362.060547 -8.738725 22.905455 -73.395912 499.765686
[Rear_Toe3_01]
76 -153.359680 -308.780914 -362.060852 3.789165 19.454075 -119.570496 499.952881
77 -153.359680 -308.780914 -362.060852 3.789387 19.453505 -119.570480 499.952881
78 -153.359680 -308.780914 -362.060852 3.789608 19.452936 -119.570457 499.952881
[planeLockWeightCenter]
76 -0.000062 0.000238 0.000000 -0.011814 -0.004373 -0.000015 0.000246
77 -0.000062 0.000238 0.000000 -0.011814 -0.004373 -0.000015 0.000246
78 -0.000062 0.000238 0.000000 -0.011814 -0.004373 -0.000015 0.000246
[Rear_Toe1_02]
76 379.707825 0.194073 0.000477 -0.000341 -33.025665 0.006990 379.707855
77 379.707825 0.194073 0.000477 -0.000341 -33.026493 0.006990 379.707855
78 379.707825 0.194073 0.000477 -0.000341 -33.027313 0.006990 379.707855
[Rear_Toe1_03]
76 500.129700 0.165701 0.000119 -0.004074 60.617641 -0.000459 500.129761
77 500.129700 0.165701 0.000119 -0.004074 60.618324 -0.000459 500.129761
78 500.129700 0.165701 0.000119 -0.004074 60.618980 -0.000459 500.129761
[Rear_Toe2_02]
76 340.494507 0.000238 -0.000954 0.001179 -79.157372 0.001179 340.494507
77 340.494507 0.000238 -0.000954 0.001179 -79.158287 0.001179 340.494507
78 340.494507 0.000238 -0.000954 0.001179 -79.159065 0.001179 340.494507
[Rear_Toe2_03]
76 433.103577 0.000000 0.000238 0.032110 85.810722 0.032110 433.103546
77 433.103577 0.000000 0.000238 0.032116 85.811523 0.032116 433.103546
78 433.103577 0.000000 0.000238 0.032122 85.812309 0.032122 433.103546
[Rear_Toe3_02]
76 340.494141 -0.000358 -0.000477 -0.002471 -50.158443 -0.002471 340.494171
77 340.494141 -0.000358 -0.000477 -0.002471 -50.159283 -0.002471 340.494171
78 340.494141 -0.000358 -0.000477 -0.002471 -50.160110 -0.002471 340.494171
[Rear_Toe3_03]
76 433.103577 0.001431 -0.000238 0.000409 44.510174 -0.003382 433.103546
77 433.103577 0.001431 -0.000238 0.000409 44.511112 -0.003382 433.103546
78 433.103577 0.001431 -0.000238 0.000409 44.512009 -0.003382 433.103546
[Back_Bone]
76 1312.175781 -701.934692 0.000954 1.401243 0.001431 -85.608086 1488.125488
77 1312.175781 -701.934692 0.000954 1.382309 0.001359 -85.607895 1488.125488
78 1312.175781 -701.934692 0.000954 1.363374 0.001288 -85.607697 1488.125488
[Head]
76 1406.159424 809.709290 0.001431 4.775689 14.171255 40.901844 1622.625488
77 1406.159424 809.709290 0.001431 4.767797 14.173996 40.866444 1622.625488
78 1406.159424 809.709290 0.001431 4.759904 14.176730 40.831047 1622.625488
[Motor_Bone]
76 1158.364380 -417.834747 0.000477 0.043552 3.988926 -105.996475 1231.419434
77 1158.364380 -417.834747 0.000477 0.040174 3.905737 -106.023796 1231.419434
78 1158.364380 -417.834747 0.000477 0.036835 3.822546 -106.051102 1231.419434
[Ping_Mechanism]
76 1208.596802 -424.429932 54.144894 0.000103 -0.000053 82.120995 1282.099243
77 1208.627563 -424.422913 54.141056 0.000103 -0.000053 82.120995 1282.125854
78 1208.658203 -424.415894 54.137222 0.000103 -0.000053 82.120995 1282.152222
[BN_LookIK]
76 193.241119 1380.371704 -0.002861 0.000000 89.965736 -31.038179 1393.832153
77 193.241119 1380.371704 -0.002861 0.000000 89.965736 -31.038179 1393.832153
78 193.241119 1380.371704 -0.002861 0.000000 89.965736 -31.038179 1393.832153
[bottomMouth]
76 -435.092926 615.759399 -0.000954 -0.000022 0.000016 73.527184 753.966492
77 -435.092926 615.759399 -0.000954 -0.000022 0.000016 73.527184 753.966492
78 -435.092926 615.759399 -0.000954 -0.000022 0.000016 73.527184 753.966492
[L_Mouth01]
76 554.440979 7.658243 838.222046 150.204178 23.759130 109.605339 1005.027161
77 554.440979 7.658243 838.222046 150.204178 23.759130 109.605339 1005.027161
78 554.440979 7.658243 838.222046 150.204178 23.759130 109.605339 1005.027161
[L_mouthFront]
76 551.629089 934.514771 339.150421 0.000081 2.804060 79.119301 1136.941284
77 551.629089 934.514771 339.150421 0.000081 2.804060 79.119301 1136.941284
78 551.629089 934.514771 339.150421 0.000081 2.804060 79.119301 1136.941284
[mouthGun]
76 55.332661 1627.420898 0.000000 0.000023 0.000009 -11.038128 1628.361328
77 55.332661 1627.420898 0.000000 0.000023 0.000009 -11.038128 1628.361328
78 55.332661 1627.420898 0.000000 0.000023 0.000009 -11.038128 1628.361328
[R_Mouth01]
76 554.442383 7.659197 -838.223938 29.795891 -23.759109 109.605331 1005.029541
77 554.442383 7.659197 -838.223938 29.795891 -23.759109 109.605331 1005.029541
78 554.442383 7.659197 -838.223938 29.795891 -23.759109 109.605331 1005.029541
[R_mouthFront]
76 551.629089 934.514282 -339.151367 0.000029 -2.803930 79.119133 1136.941162
77 551.629089 934.514282 -339.151367 0.000029 -2.803930 79.119133 1136.941162
78 551.629089 934.514282 -339.151367 0.000029 -2.803930 79.119133 1136.941162
[TopMouth]
76 461.269867 -56.106091 -0.008583 -0.000059 -0.000268 92.025169 464.669525
77 461.269867 -56.106091 -0.008583 -0.000059 -0.000268 92.025169 464.669525
78 461.269867 -56.106091 -0.008583 -0.000059 -0.000268 92.025169 464.669525
[weapon_bone]
76 -987.239868 1448.372803 0.001431 0.000000 89.965736 -31.038221 1752.833740
77 -987.239868 1448.372803 0.001431 0.000000 89.965736 -31.038221 1752.833740
78 -987.239868 1448.372803 0.001431 0.000000 89.965736 -31.038221 1752.833740
